<?xml version="1.0" standalone="no"?><!DOCTYPE svg PUBLIC "-//W3C//DTD SVG 1.1//EN" "http://www.w3.org/Graphics/SVG/1.1/DTD/svg11.dtd"><svg t="1629122456186" class="icon" viewBox="0 0 1024 1024" version="1.1" xmlns="http://www.w3.org/2000/svg" p-id="8470" xmlns:xlink="http://www.w3.org/1999/xlink" width="200" height="200"><defs><style type="text/css"></style></defs><path d="M85.333333 0h853.333334c46.933333 0 85.333333 38.4 85.333333 85.333333v853.333334c0 46.933333-38.4 85.333333-85.333333 85.333333H85.333333c-46.933333 0-85.333333-38.4-85.333333-85.333333V85.333333c0-46.933333 38.4-85.333333 85.333333-85.333333z" fill="#C71D23" p-id="8471"></path><path d="M780.8 215.466667H413.866667c-108.8 0-196.266667 87.466667-196.266667 196.266666v369.066667c0 14.933333 12.8 25.6 25.6 25.6h388.266667c98.133333 0 177.066667-78.933333 177.066666-177.066667v-151.466666c0-14.933333-12.8-25.6-25.6-25.6H480c-14.933333 0-25.6 12.8-25.6 25.6v66.133333c0 12.8 10.666667 25.6 23.466667 25.6h185.6c12.8 0 25.6 10.666667 25.6 23.466667v14.933333c0 42.666667-36.266667 78.933333-78.933334 78.933333H360.533333c-14.933333 0-25.6-12.8-25.6-25.6V413.866667c0-42.666667 34.133333-76.8 74.666667-78.933334h373.333333c14.933333 0 25.6-12.8 25.6-25.6v-66.133333c0-14.933333-12.8-27.733333-27.733333-27.733333z" fill="#FFFFFF" p-id="8472"></path></svg>